<?xml version="1.0" encoding="utf-8"?>
<!-- Generator: Adobe Illustrator 24.0.2, SVG Export Plug-In . SVG Version: 6.00 Build 0)  -->
<svg version="1.1" id="Слой_1" xmlns="http://www.w3.org/2000/svg" xmlns:xlink="http://www.w3.org/1999/xlink" x="0px" y="0px"
	 viewBox="0 0 150 300" style="enable-background:new 0 0 150 300;" xml:space="preserve">
<style type="text/css">
	.st0{fill:#3C8ADF;}
	.st1{fill:#5FC1FE;}
	.st2{fill:#99E5FD;}
	.st3{fill:#2C415E;}
</style>
<g>
	<path class="st0" d="M123.96,128.39c1.37,0,2.03-1.68,1.03-2.62l-3.39-3.16c0.41-18.39,0.93-33.56,1.09-37.98
		c0.03-0.84,0.09-1.68,0.17-2.53c0.64-6.59,3.6-37.98,2.02-43.29c-0.83-2.77-3.65-7.84-6.39-12.45
		c-3.73-6.25-9.62-10.94-16.54-13.22L76.26,4.73c-8.12-2.67-16.88-2.67-24.98,0l-25.7,8.42c-6.93,2.28-12.8,6.97-16.54,13.22
		c-2.75,4.6-5.55,9.67-6.39,12.45c-1.58,5.3,1.38,36.69,2.03,43.29c0.09,0.84,0.13,1.68,0.16,2.53c0.16,4.43,0.69,19.66,1.09,38.1
		l-3.26,3.03c-1.01,0.94-0.34,2.62,1.03,2.62h2.35c0.58,29.36,0.76,64.57-1.25,77.69c-3.7,24.11-1.48,53.03-1.48,53.03
		s2.22,26.71,16.31,33.02c14.1,6.3,44.14,5.56,44.14,5.56s30.04,0.74,44.13-5.56c14.09-6.3,16.31-33.02,16.31-33.02
		s2.24-28.92-1.48-53.03c-2.02-13.12-1.84-48.33-1.25-77.69H123.96z M108.94,206.03c-2.96,10.31-6.38,15.57-8.79,18.17l0.01-1.18
		c-33.82,3.72-70.4,0.22-72.58,0.01c-5.45-6.16-8.02-11.78-9.22-15.88c2.59-19.09,1.58-40.53,1.09-50.9
		c-0.13-2.66-0.64-5.88-1.37-9.31c0.92-4.76,2.48-8.51,4.49-11.43c5.26-1.29,20.96-4.74,39.74-5.07h0.01
		c0.01,0.01,0.01,0.01,0.01,0.01s0.01,0,0.03-0.01h0.01c13.65-0.22,28.92,1.21,42.98,6.29l0.48-1.44c1.96,2.53,3.53,5.24,4.55,7.16
		c-1.25,5.05-2.21,9.99-2.4,13.8C107.5,166.43,106.54,187.25,108.94,206.03z"/>
	<path class="st1" d="M116.3,103.55c-17.42-7.38-34.83-10.84-52.26-10.4v0.01h-0.28v-0.01c-17.42-0.44-34.85,3.02-52.26,10.4
		c-1-29.59-0.97-56.58,2.47-74.98c0.6-3.17,2.59-5.9,5.46-7.35C32.87,14.47,53.5,8.16,61.28,6.43c1.74-0.39,3.5-0.41,5.24,0
		c7.22,1.67,27.89,7.89,41.79,14.8c2.91,1.45,4.94,4.2,5.53,7.39C117.28,47.02,117.31,73.99,116.3,103.55z"/>
	<path class="st2" d="M71.06,32.71l0,60.48c6.31,0.16,13.02,1.03,20.02,2.41l0-54.36L71.06,32.71z"/>
	<path class="st2" d="M56.22,32.71l0,60.48c-6.31,0.16-13.02,1.03-20.02,2.41l0-54.36L56.22,32.71z"/>
	<path class="st3" d="M89.64,288.43c5.09-1.02,14.85-3.19,18.75-5.46c0.81-0.47,1.85,0.08,1.95,1.01c0.09,0.81,0.12,1.72,0.02,2.53
		c-0.11,0.86-0.71,1.57-1.52,1.89c-2.64,1.02-9.82,3.22-19.2,1.4C88.9,289.65,88.9,288.58,89.64,288.43z"/>
	<path class="st3" d="M37.59,288.43c-5.09-1.02-14.85-3.19-18.75-5.46c-0.81-0.47-1.85,0.08-1.95,1.01
		c-0.09,0.81-0.12,1.72-0.02,2.53c0.11,0.86,0.71,1.57,1.52,1.89c2.64,1.02,9.82,3.22,19.2,1.4
		C38.34,289.65,38.34,288.58,37.59,288.43z"/>
	<path class="st3" d="M100.17,223.02l-0.01,1.18l-0.39,38.59v0.65c0,0-1.41,0.26-3.86,0.65c-0.15,0.03-0.29,0.06-0.44,0.07
		c-6.78,1.07-20.7,2.95-35.49,3.05c-11.05,0.09-22.59-0.81-32-3.78l-0.49-40.42c0,0,0.03,0,0.1,0.01
		C29.76,223.24,66.35,226.74,100.17,223.02z"/>
	<path class="st3" d="M18.36,207.16c-0.58,4.34-1.37,8.57-2.37,12.52c0,0-1.82-4.04-3.41-9.99c-0.65-2.41-1.28-5.13-1.71-8.03v-0.01
		c-0.35-2.19-0.6-4.47-0.68-6.8c-0.49-12.99-0.62-76.77-0.62-76.77s5.8,15.92,8.53,28.88c0.73,3.43,1.23,6.65,1.37,9.31
		C19.94,166.63,20.95,188.07,18.36,207.16z"/>
	<path class="st3" d="M117.89,118.08c0,0-0.12,63.78-0.61,76.77c-0.1,2.54-0.38,5.04-0.78,7.42c-0.67,4.14-1.67,7.89-2.61,10.85
		c-1.26,4.02-2.41,6.57-2.41,6.57c-1.1-4.29-1.92-8.9-2.53-13.65c-2.4-18.78-1.44-39.6-0.94-49.76c0.19-3.81,1.15-8.74,2.4-13.8
		C113.33,130.6,117.89,118.08,117.89,118.08z"/>
	<path class="st3" d="M116.3,103.55l-10.46,31.75l-0.48,1.44c-14.06-5.08-29.33-6.51-42.98-6.29h-0.01c-0.01,0.01-0.03,0.01-0.04,0
		h-0.01c-18.78,0.33-34.48,3.78-39.74,5.07c-1.23,0.29-1.89,0.48-1.89,0.48l-9.18-32.45c17.42-7.38,34.85-10.84,52.26-10.4v0.01
		h0.28v-0.01c2.34-0.06,4.68-0.04,7.02,0.04c1.84,0.06,3.69,0.16,5.52,0.3c0.76,0.06,1.51,0.13,2.27,0.22
		c0.55,0.06,1.1,0.12,1.66,0.19c0.15,0.01,0.3,0.03,0.45,0.04c0.78,0.1,1.58,0.2,2.38,0.32c2.56,0.35,5.1,0.78,7.65,1.32
		c0.03,0,0.06,0,0.09,0.01C99.48,97.33,107.89,99.98,116.3,103.55z"/>
	<path class="st1" d="M116.42,201.29c0,0-11.62,56.59-17.18,62.15c-24.2,4.99-51.92,5.13-71.26,0
		c-5.56-5.56-17.18-62.15-17.18-62.15c-2.72,33.03-1.24,54.12,0.99,67.47c4,24,48.85,21.56,51.83,21.74
		c2.95-0.22,47.82,2.27,51.83-21.74C117.66,255.41,119.14,234.33,116.42,201.29z"/>
	<path class="st1" d="M108.94,206.03c-2.96,10.31-6.38,15.57-8.79,18.17l0.01-1.18c-33.82,3.72-70.4,0.22-72.58,0.01
		c-5.45-6.16-8.02-11.78-9.22-15.88c2.59-19.09,1.58-40.53,1.09-50.9c-0.13-2.66-0.64-5.88-1.37-9.31
		c0.92-4.76,2.48-8.51,4.49-11.43c5.26-1.29,20.96-4.74,39.74-5.07h0.01c0.01,0.01,0.01,0.01,0.01,0.01s0.01,0,0.03-0.01h0.01
		c13.65-0.22,28.92,1.21,42.98,6.29l0.48-1.44c1.96,2.53,3.53,5.24,4.55,7.16c-1.25,5.05-2.21,9.99-2.4,13.8
		C107.5,166.43,106.54,187.25,108.94,206.03z"/>
</g>
</svg>
