<?xml version="1.0" encoding="utf-8"?>
<!-- Generator: Adobe Illustrator 24.0.2, SVG Export Plug-In . SVG Version: 6.00 Build 0)  -->
<svg version="1.1" id="Слой_1" xmlns="http://www.w3.org/2000/svg" xmlns:xlink="http://www.w3.org/1999/xlink" x="0px" y="0px"
	 viewBox="0 0 150 300" style="enable-background:new 0 0 150 300;" xml:space="preserve">
<style type="text/css">
	.st0{fill:#3C45DF;}
	.st1{fill:#5F72FE;}
	.st2{fill:#9988FD;}
	.st3{fill:#2C415E;}
</style>
<g id="purp_car" transform="scale(1.0)">
	<path class="st0" d="M123.88,127.98c1.38,0,2.04-1.69,1.03-2.62l-3.4-3.17c0.41-18.43,0.93-33.64,1.09-38.07
		c0.03-0.84,0.09-1.69,0.17-2.53c0.64-6.61,3.61-38.08,2.02-43.39c-0.83-2.78-3.65-7.86-6.41-12.48
		c-3.74-6.26-9.64-10.96-16.59-13.25L76.07,4.02c-8.14-2.68-16.92-2.68-25.04,0l-25.76,8.45c-6.95,2.29-12.83,6.99-16.59,13.25
		c-2.75,4.62-5.56,9.7-6.41,12.48c-1.59,5.31,1.38,36.78,2.04,43.39c0.09,0.84,0.13,1.69,0.16,2.53c0.16,4.44,0.69,19.71,1.1,38.2
		l-3.27,3.04c-1.01,0.94-0.34,2.62,1.03,2.62h2.36c0.58,29.43,0.77,64.73-1.26,77.88c-3.71,24.17-1.49,53.16-1.49,53.16
		s2.23,26.78,16.35,33.1c14.14,6.32,44.25,5.58,44.25,5.58s30.11,0.74,44.24-5.58c14.12-6.32,16.35-33.1,16.35-33.1
		s2.24-28.99-1.49-53.16c-2.02-13.15-1.84-48.45-1.26-77.88H123.88z M108.83,205.8c-2.97,10.34-6.39,15.61-8.81,18.22l0.01-1.18
		c-33.9,3.73-70.58,0.22-72.76,0.01c-5.46-6.17-8.04-11.81-9.25-15.92c2.59-19.13,1.59-40.63,1.09-51.02
		c-0.13-2.66-0.64-5.9-1.37-9.33c0.92-4.78,2.49-8.53,4.5-11.46c5.27-1.3,21.01-4.75,39.84-5.08h0.01c0.01,0.01,0.01,0.01,0.01,0.01
		s0.01,0,0.03-0.01h0.01c13.69-0.22,28.99,1.21,43.09,6.3l0.48-1.44c1.97,2.53,3.54,5.26,4.56,7.18c-1.25,5.07-2.21,10.02-2.4,13.83
		C107.39,166.11,106.43,186.97,108.83,205.8z"/>
	<path class="st1" d="M116.21,103.07c-17.46-7.4-34.92-10.86-52.39-10.43v0.01h-0.28v-0.01c-17.46-0.44-34.93,3.03-52.39,10.43
		c-1-29.66-0.98-56.72,2.48-75.16c0.6-3.17,2.59-5.91,5.47-7.37C32.57,13.77,53.25,7.45,61.06,5.72c1.75-0.39,3.51-0.41,5.26,0
		c7.24,1.67,27.96,7.91,41.89,14.84c2.91,1.46,4.95,4.21,5.55,7.41C117.19,46.4,117.22,73.44,116.21,103.07z"/>
	<path class="st2" d="M70.86,32.06l0,60.63c6.33,0.16,13.05,1.03,20.07,2.42l0-54.49L70.86,32.06z"/>
	<path class="st2" d="M55.99,32.06l0,60.63c-6.33,0.16-13.05,1.03-20.07,2.42l0-54.49L55.99,32.06z"/>
	<path class="st3" d="M89.49,288.4c5.1-1.02,14.89-3.19,18.8-5.47c0.81-0.47,1.86,0.08,1.96,1.01c0.09,0.81,0.12,1.72,0.02,2.53
		c-0.12,0.86-0.72,1.58-1.53,1.89c-2.64,1.02-9.84,3.23-19.25,1.41C88.74,289.63,88.74,288.55,89.49,288.4z"/>
	<path class="st3" d="M37.31,288.4c-5.1-1.02-14.89-3.19-18.8-5.47c-0.81-0.47-1.86,0.08-1.96,1.01c-0.09,0.81-0.12,1.72-0.02,2.53
		c0.12,0.86,0.72,1.58,1.53,1.89c2.64,1.02,9.84,3.23,19.25,1.41C38.06,289.63,38.06,288.55,37.31,288.4z"/>
	<path class="st3" d="M100.04,222.84l-0.01,1.18l-0.39,38.69v0.66c0,0-1.41,0.26-3.87,0.66c-0.15,0.03-0.29,0.06-0.44,0.07
		c-6.8,1.08-20.75,2.96-35.57,3.06c-11.08,0.09-22.64-0.82-32.08-3.79l-0.5-40.52c0,0,0.03,0,0.1,0.01
		C29.46,223.06,66.14,226.57,100.04,222.84z"/>
	<path class="st3" d="M18.03,206.94c-0.58,4.35-1.37,8.59-2.37,12.55c0,0-1.82-4.05-3.42-10.02c-0.66-2.42-1.28-5.14-1.72-8.05v-0.01
		c-0.35-2.2-0.6-4.48-0.68-6.81c-0.5-13.02-0.63-76.96-0.63-76.96s5.81,15.96,8.55,28.95c0.73,3.44,1.24,6.67,1.37,9.33
		C19.62,166.31,20.62,187.8,18.03,206.94z"/>
	<path class="st3" d="M117.8,117.64c0,0-0.12,63.94-0.61,76.96c-0.1,2.55-0.38,5.05-0.79,7.44c-0.67,4.15-1.67,7.91-2.62,10.88
		c-1.27,4.03-2.42,6.58-2.42,6.58c-1.11-4.3-1.92-8.93-2.53-13.69c-2.4-18.83-1.44-39.69-0.95-49.89c0.19-3.81,1.15-8.77,2.4-13.83
		C113.23,130.19,117.8,117.64,117.8,117.64z"/>
	<path class="st3" d="M116.21,103.07l-10.48,31.83l-0.48,1.44c-14.1-5.1-29.4-6.52-43.09-6.3h-0.01c-0.01,0.01-0.03,0.01-0.04,0
		h-0.01c-18.83,0.33-34.57,3.79-39.84,5.08c-1.24,0.29-1.89,0.48-1.89,0.48l-9.2-32.53c17.46-7.4,34.93-10.86,52.39-10.43v0.01h0.28
		v-0.01c2.34-0.06,4.69-0.04,7.03,0.04c1.85,0.06,3.7,0.16,5.53,0.31c0.76,0.06,1.51,0.13,2.27,0.22c0.55,0.06,1.11,0.12,1.66,0.19
		c0.15,0.01,0.31,0.03,0.45,0.04c0.79,0.1,1.59,0.2,2.39,0.32c2.56,0.35,5.11,0.79,7.67,1.33c0.03,0,0.06,0,0.09,0.01
		C99.35,96.84,107.78,99.49,116.21,103.07z"/>
	<path class="st1" d="M116.33,201.06c0,0-11.65,56.73-17.23,62.31c-24.26,5.01-52.04,5.14-71.44,0
		c-5.58-5.58-17.23-62.31-17.23-62.31c-2.73,33.11-1.24,54.25,0.99,67.64c4.01,24.06,48.97,21.61,51.95,21.79
		c2.96-0.22,47.94,2.27,51.95-21.79C117.57,255.31,119.06,234.17,116.33,201.06z"/>
	<path class="st1" d="M108.83,205.8c-2.97,10.34-6.39,15.61-8.81,18.22l0.01-1.18c-33.9,3.73-70.58,0.22-72.76,0.01
		c-5.46-6.17-8.04-11.81-9.25-15.92c2.59-19.13,1.59-40.63,1.09-51.02c-0.13-2.66-0.64-5.9-1.37-9.33c0.92-4.78,2.49-8.53,4.5-11.46
		c5.27-1.3,21.01-4.75,39.84-5.08h0.01c0.01,0.01,0.01,0.01,0.01,0.01s0.01,0,0.03-0.01h0.01c13.69-0.22,28.99,1.21,43.09,6.3
		l0.48-1.44c1.97,2.53,3.54,5.26,4.56,7.18c-1.25,5.07-2.21,10.02-2.4,13.83C107.39,166.11,106.43,186.97,108.83,205.8z"/>
</g>		
</svg>
