<svg id="Слой_1" data-name="Слой 1" xmlns="http://www.w3.org/2000/svg" xmlns:xlink="http://www.w3.org/1999/xlink" viewBox="0 0 305.53 931.97"><defs><style>.cls-1{fill:url(#Безымянный_градиент_11);}.cls-2{fill:url(#Безымянный_градиент_13);}.cls-3{fill:url(#Безымянный_градиент_15);}.cls-4{fill:url(#Безымянный_градиент_17);}.cls-5{fill:url(#Безымянный_градиент_20);}.cls-6{fill:url(#Безымянный_градиент_22);}.cls-7{fill:url(#Безымянный_градиент_24);}.cls-8{fill:url(#Безымянный_градиент_24-2);}.cls-9{fill:url(#Безымянный_градиент_26);}.cls-10{fill:url(#Безымянный_градиент_9);}.cls-11{fill:url(#Безымянный_градиент_9-2);}.cls-12{fill:url(#Безымянный_градиент_9-3);}.cls-13{fill:url(#Безымянный_градиент_9-4);}.cls-14{fill:url(#Безымянный_градиент_9-5);}.cls-15{fill:url(#Безымянный_градиент_11-2);}.cls-16{fill:url(#Безымянный_градиент_13-2);}.cls-17{fill:url(#Безымянный_градиент_15-2);}.cls-18{fill:url(#Безымянный_градиент_17-2);}.cls-19{fill:url(#Безымянный_градиент_20-2);}.cls-20{fill:url(#Безымянный_градиент_22-2);}.cls-21{fill:none;stroke:#000;stroke-miterlimit:10;}.cls-22{fill:url(#Безымянный_градиент_40);}.cls-23{fill:url(#Безымянный_градиент_36);}.cls-24{fill:url(#Безымянный_градиент_36-2);}.cls-25{fill:url(#Безымянный_градиент_35);}.cls-26{fill:url(#Безымянный_градиент_34);}</style><linearGradient id="Безымянный_градиент_11" x1="1047.85" y1="269.8" x2="1133.13" y2="267.8" gradientUnits="userSpaceOnUse"><stop offset="0" stop-color="#f3f"/><stop offset="1"/></linearGradient><linearGradient id="Безымянный_градиент_13" x1="983.9" y1="279.78" x2="1079.17" y2="269.12" gradientUnits="userSpaceOnUse"><stop offset="0" stop-color="#c3f"/><stop offset="1"/></linearGradient><linearGradient id="Безымянный_градиент_15" x1="927.39" y1="315.13" x2="1022.67" y2="267.83" gradientUnits="userSpaceOnUse"><stop offset="0" stop-color="#93f"/><stop offset="1"/></linearGradient><linearGradient id="Безымянный_градиент_17" x1="894.48" y1="351.86" x2="968.43" y2="277.91" gradientUnits="userSpaceOnUse"><stop offset="0" stop-color="#33c"/><stop offset="1"/></linearGradient><linearGradient id="Безымянный_градиент_20" x1="848.96" y1="427.15" x2="910.25" y2="305.89" gradientUnits="userSpaceOnUse"><stop offset="0" stop-color="#09f"/><stop offset="1"/></linearGradient><linearGradient id="Безымянный_градиент_22" x1="863.73" y1="486.88" x2="876.39" y2="396.27" gradientUnits="userSpaceOnUse"><stop offset="0" stop-color="#0cf"/><stop offset="1"/></linearGradient><linearGradient id="Безымянный_градиент_24" x1="930.84" y1="654.98" x2="880.87" y2="539.05" gradientUnits="userSpaceOnUse"><stop offset="0" stop-color="aqua"/><stop offset="1"/></linearGradient><linearGradient id="Безымянный_градиент_24-2" x1="880.84" y1="544.13" x2="878.84" y2="444.85" xlink:href="#Безымянный_градиент_24"/><linearGradient id="Безымянный_градиент_26" x1="900.94" y1="580.95" x2="886.28" y2="496.34" gradientUnits="userSpaceOnUse"><stop offset="0" stop-color="#6f9"/><stop offset="1"/></linearGradient><linearGradient id="Безымянный_градиент_9" x1="1015.5" y1="777.54" x2="1030.61" y2="711.36" gradientUnits="userSpaceOnUse"><stop offset="0" stop-color="#39b54a"/><stop offset="1"/></linearGradient><linearGradient id="Безымянный_градиент_9-2" x1="1020.49" y1="735.16" x2="1032.48" y2="686.74" xlink:href="#Безымянный_градиент_9"/><linearGradient id="Безымянный_градиент_9-3" x1="1025.85" y1="710.19" x2="1035.62" y2="656" xlink:href="#Безымянный_градиент_9"/><linearGradient id="Безымянный_градиент_9-4" x1="1037.16" y1="675.42" x2="1037.6" y2="638.56" xlink:href="#Безымянный_градиент_9"/><linearGradient id="Безымянный_градиент_9-5" x1="1047.51" y1="658.83" x2="1038.19" y2="611.74" xlink:href="#Безымянный_градиент_9"/><linearGradient id="Безымянный_градиент_11-2" x1="1055.61" y1="874.11" x2="981.88" y2="825.69" xlink:href="#Безымянный_градиент_11"/><linearGradient id="Безымянный_градиент_13-2" x1="1043.95" y1="874.42" x2="932.9" y2="799.35" xlink:href="#Безымянный_градиент_13"/><linearGradient id="Безымянный_градиент_15-2" x1="973.01" y1="813.81" x2="907.71" y2="775.61" xlink:href="#Безымянный_градиент_15"/><linearGradient id="Безымянный_градиент_17-2" x1="959.19" y1="783.03" x2="893.45" y2="733.73" xlink:href="#Безымянный_градиент_17"/><linearGradient id="Безымянный_градиент_20-2" x1="956.28" y1="755.56" x2="880.33" y2="652.96" xlink:href="#Безымянный_градиент_20"/><linearGradient id="Безымянный_градиент_22-2" x1="934.62" y1="686.52" x2="894.64" y2="605.24" xlink:href="#Безымянный_градиент_22"/><linearGradient id="Безымянный_градиент_40" x1="932.45" y1="138.02" x2="978.64" y2="131.5" gradientUnits="userSpaceOnUse"><stop offset="0" stop-color="#cf3"/><stop offset="1"/></linearGradient><linearGradient id="Безымянный_градиент_36" x1="902.69" y1="135.4" x2="949.77" y2="133.92" gradientUnits="userSpaceOnUse"><stop offset="0" stop-color="#fc3"/><stop offset="1"/></linearGradient><linearGradient id="Безымянный_градиент_36-2" x1="866" y1="137.92" x2="931.44" y2="134.37" xlink:href="#Безымянный_градиент_36"/><linearGradient id="Безымянный_градиент_35" x1="828.01" y1="144.05" x2="891.97" y2="138.13" gradientUnits="userSpaceOnUse"><stop offset="0" stop-color="#f63"/><stop offset="1"/></linearGradient><linearGradient id="Безымянный_градиент_34" x1="808.46" y1="155.71" x2="847.54" y2="156" gradientUnits="userSpaceOnUse"><stop offset="0" stop-color="red"/><stop offset="1"/></linearGradient></defs><title>Logo</title><path class="cls-1" d="M1112.5,110.11V426.46a85.43,85.43,0,0,1-16.35-1.81q-.53-.11-1-.24S1020.54,214,1112.5,110.11Z" transform="translate(-806.96 -74.46)"/><path class="cls-2" d="M1095.13,424.41a65.31,65.31,0,0,1-13.7-4.76l-.14-.06a93.88,93.88,0,0,1-17.51-11.41v0c-1.46-1.89-117.6-152.76-61.27-282,47.64-12.76,90.49-16,110-16C1020.54,214,1095.13,424.41,1095.13,424.41Z" transform="translate(-806.96 -74.46)"/><path class="cls-3" d="M1063.77,408.16c-7.75-6.09-15-12.47-24.56-16.94l-.42-.19-.06,0-.14-.07c-6.14-3-149.08-74.7-121-231.31h0a347.21,347.21,0,0,1,53-23.65c10.71-3.79,21.39-7,31.83-9.84C946.17,255.4,1062.31,406.27,1063.77,408.16Z" transform="translate(-806.96 -74.46)"/><path class="cls-4" d="M1038.59,390.93c-7.17-3.24-15.66-5.41-26.66-5.63h-1.81a73.73,73.73,0,0,0-32.1,7.3h0c-1.47-.77-141.06-73.08-144.19-155.21,20.4-34.09,50.57-59.26,83.81-77.76C889.51,316.23,1032.45,387.93,1038.59,390.93Z" transform="translate(-806.96 -74.46)"/><path class="cls-5" d="M978,392.59a74.28,74.28,0,0,0-34.64,34.62s-122.11-3-134.73-56.41c-1.09-11.18-1.69-21.58-1.67-31.05.06-40.86,10.22-74.6,26.85-102.37C837,319.51,976.54,391.82,978,392.59Z" transform="translate(-806.96 -74.46)"/><path class="cls-6" d="M943.37,427.21a73.79,73.79,0,0,0-7.08,26.39s-62.1,27.13-114.51,1.42c-5.91-30.92-10.73-59.49-13.14-84.22C821.26,424.24,943.37,427.21,943.37,427.21Z" transform="translate(-806.96 -74.46)"/><path class="cls-7" d="M951.8,540.44s-12.81,57.83-90,130.25c-3.46-25.63-7.87-51.69-12.68-77.58,79.11-36.06,94.21-84.85,94.21-84.85,1.37,5.85,2.89,11.88,4.53,18Q949.76,533.26,951.8,540.44Z" transform="translate(-806.96 -74.46)"/><path class="cls-8" d="M936.51,467.57c-5.44,9.43-37.89,61-99,66.2C832,506.5,826.55,480,821.78,455c52.41,25.71,114.51-1.42,114.51-1.42-.15,1.88-.22,3.79-.22,5.7,0,2.49.13,5,.37,7.4a1.33,1.33,0,0,0,0,.4C936.48,467.26,936.5,467.42,936.51,467.57Z" transform="translate(-806.96 -74.46)"/><path class="cls-9" d="M943.37,508.26s-15.1,48.79-94.21,84.85c-3.71-20-7.66-39.86-11.61-59.34,61.07-5.21,93.52-56.77,99-66.2C937.46,479.74,939.92,493.43,943.37,508.26Z" transform="translate(-806.96 -74.46)"/><path class="cls-10" d="M1112.38,758.49v28.84s-61.33,3.77-111.11-74.33c0-.09-.06-.22-.08-.31-3.11-14.35-6.8-28.94-10.79-43.53-8.68-31.52-18.87-63.19-28-93C966.6,589.32,1023.12,759.75,1112.38,758.49Z" transform="translate(-806.96 -74.46)"/><path class="cls-11" d="M1112.5,716.22v42.27h-1c-1.27,0-2.52,0-3.77-.1l-1.06-.07-1.35-.11c-.72-.06-1.44-.14-2.14-.22s-1.28-.16-1.92-.26c-1.32-.19-2.61-.42-3.9-.68l-1-.22-1.09-.25c-.66-.15-1.32-.32-2-.49a80.42,80.42,0,0,1-11.36-4l-1.45-.64q-4-1.8-7.8-4c-.5-.28-1-.58-1.5-.88-.71-.41-1.41-.84-2.11-1.28l-1.36-.87c-.73-.47-1.47-1-2.19-1.45l-1.67-1.16q-1.8-1.27-3.56-2.62l-1.44-1.11c-.68-.52-1.34-1.06-2-1.61l-1.3-1.08-.78-.65q-1.44-1.23-2.88-2.52c-.26-.22-.52-.46-.77-.69l-1.35-1.24-1.23-1.15-1.62-1.56-1.61-1.59c-.54-.54-1.07-1.08-1.6-1.63s-.92-1-1.38-1.44l-.3-.3-1.47-1.58-1.39-1.52c-.58-.62-1.15-1.27-1.72-1.91-1-1.08-1.91-2.18-2.85-3.3s-2.13-2.53-3.17-3.82c-.5-.61-1-1.22-1.47-1.84l-1.46-1.85c-1-1.24-1.93-2.5-2.88-3.76-.4-.54-.8-1.07-1.19-1.61l-1.68-2.29-2.7-3.82q-1.37-1.95-2.7-3.94c-.4-.58-.79-1.17-1.18-1.76-.27-.39-.53-.8-.79-1.2-.43-.65-.85-1.29-1.26-1.93-.67-1-1.33-2.06-2-3.1l-1.27-2c-.63-1-1.26-2-1.88-3l-1.22-2q-2.76-4.58-5.35-9.19c-.38-.69-.77-1.37-1.15-2-1.36-2.43-2.68-4.87-4-7.3-.36-.68-.73-1.37-1.08-2.06-2.87-5.46-5.58-10.87-8.1-16.15-.32-.66-.64-1.31-.94-2-1.65-3.47-3.22-6.89-4.72-10.22-.46-1.06-.93-2.12-1.4-3.17-.81-1.84-1.6-3.67-2.36-5.45l-1.5-3.53q-1.19-2.79-2.27-5.47-.33-.82-.66-1.62c-.22-.54-.43-1.07-.64-1.6s-.43-1.06-.63-1.58c-1.86-4.66-3.49-8.92-4.87-12.68-.29-.78-.57-1.55-.84-2.29-.45-1.22-.87-2.37-1.25-3.46-.22-.62-.42-1.21-.63-1.78,0-.12-.08-.22-.12-.33l-.57-1.65c-.21-.62-.41-1.19-.6-1.74l-.48-1.43c-.09-.23-.16-.46-.22-.66-.29-.85-.52-1.55-.7-2.11,0-.1-.06-.19-.1-.28a.45.45,0,0,0,0-.11c0-.13-.07-.24-.11-.35s-.06-.19-.08-.28-.1-.3-.12-.39l0,.1a.24.24,0,0,1,0,.07l0,.08C965.44,583.94,1018.54,722.45,1112.5,716.22Z" transform="translate(-806.96 -74.46)"/><path class="cls-12" d="M1112.5,678.71v37.51c-94,6.23-147.06-132.28-150.13-140.52a.36.36,0,0,1,0,.09,1.08,1.08,0,0,1,.08.19c0,.12.1.24.15.38a1.33,1.33,0,0,0,.06.12,1.82,1.82,0,0,1,.11.28,3,3,0,0,1,.16.36C969,591.41,1012.73,685.48,1112.5,678.71Z" transform="translate(-806.96 -74.46)"/><path class="cls-13" d="M1112.5,639.85v38.86C1012.73,685.48,969,591.41,963,577.12,969,590.83,1011.32,677.33,1112.5,639.85Z" transform="translate(-806.96 -74.46)"/><path class="cls-14" d="M1112.5,639.85C1011.32,677.33,969,590.83,963,577.12a3,3,0,0,0-.16-.36,1.82,1.82,0,0,0-.11-.28,1.33,1.33,0,0,1-.06-.12c0-.14-.1-.26-.15-.38a1.08,1.08,0,0,0-.08-.19.36.36,0,0,0,0-.09l0-.08a.24.24,0,0,0,0-.07v0l0,0,0,0h0a0,0,0,0,1,0,0v0C1005.29,642.3,1112.5,639.85,1112.5,639.85Z" transform="translate(-806.96 -74.46)"/><path class="cls-15" d="M1011.26,791.41a312.77,312.77,0,0,1-65.54,191.94c-11,14.13-27.69,23-45.57,23.07h-.36c-1.29,0-2.59,0-3.85-.09,0,0,152.88-144,66.43-430.52,9.22,29.93,19.44,61.72,28.15,93.35,4,14.59,7.68,29.18,10.78,43.53,0,.09.06.22.09.31.34,1.54.64,3.1,1,4.64a.22.22,0,0,0,.18.06A313.07,313.07,0,0,1,1011.26,791.41Z" transform="translate(-806.96 -74.46)"/><path class="cls-16" d="M895.94,1006.33c-27.07-1.38-48.24-17.89-58.52-39.82,0,0,163.09-61.7,124.82-391v-.11l0,.08v0c0,.11.07.21.1.33C1048.82,862.3,895.94,1006.33,895.94,1006.33Z" transform="translate(-806.96 -74.46)"/><path class="cls-17" d="M837.42,966.51a70.93,70.93,0,0,1,1.47-63.72C925.43,851.57,963,697.89,962.24,575.48,1000.51,904.81,837.42,966.51,837.42,966.51Z" transform="translate(-806.96 -74.46)"/><path class="cls-18" d="M838.89,902.79c4.49-8.48,8.24-17.27,12.13-26.11,7.2-16.37,12-34.86,14.88-55,83.37-92.79,96.32-246.4,96.32-246.4s0,.11,0,.16C963,697.89,925.43,851.57,838.89,902.79Z" transform="translate(-806.96 -74.46)"/><path class="cls-19" d="M865.9,821.72c3.9-27.3,4.25-57.54,2.23-89.38,82-93.91,94.09-157,94.09-157S949.27,728.93,865.9,821.72Z" transform="translate(-806.96 -74.46)"/><path class="cls-20" d="M962.22,575.32s-12.1,63.11-94.09,157c-1.26-20-3.46-40.7-6.29-61.65,77.15-72.42,90-130.25,90-130.25C955,551.68,958.53,563.34,962.22,575.32Z" transform="translate(-806.96 -74.46)"/><path class="cls-21" d="M1038.79,391l-.06,0" transform="translate(-806.96 -74.46)"/><path class="cls-22" d="M970.34,136.07c-9.36,3.32-18.75,7-28,11.2-7.17-14.71,6.39-22.19,6.39-22.19C960.32,131.61,968.52,136.07,970.34,136.07Z" transform="translate(-806.96 -74.46)"/><path class="cls-23" d="M942.32,147.27c-8.35,3.74-16.61,7.85-24.69,12.35C896,130.3,922,110.11,922,110.11c9.82,5.43,19,10.65,26.7,15C948.71,125.08,935.15,132.56,942.32,147.27Z" transform="translate(-806.96 -74.46)"/><path class="cls-24" d="M917.63,159.62a265.82,265.82,0,0,0-32.91,21.53c-26.3-30.71-9.56-81.05,3.89-88.7,11.12,5.52,22.64,11.71,33.4,17.66C922,110.11,896,130.3,917.63,159.62Z" transform="translate(-806.96 -74.46)"/><path class="cls-25" d="M884.72,181.15a216.64,216.64,0,0,0-26.3,23.77c-24.92-33.07-17.33-107.84-3.61-127,9.81,3.23,21.57,8.5,33.8,14.56C875.16,100.1,858.42,150.44,884.72,181.15Z" transform="translate(-806.96 -74.46)"/><path class="cls-26" d="M858.42,204.92a189.13,189.13,0,0,0-24.6,32.46C823.34,209.15,813,89.18,831.59,76.09c4.06-2.87,12.4-1.76,23.06,1.74l.16.06C841.09,97.08,833.5,171.85,858.42,204.92Z" transform="translate(-806.96 -74.46)"/></svg>