<svg xmlns="http://www.w3.org/2000/svg" xmlns:xlink="http://www.w3.org/1999/xlink" viewBox="0 0 312.77 954.05"><defs><style>.a{fill:#fff;}.b{fill:url(#a);}.c{fill:url(#b);}.d{fill:url(#c);}</style><linearGradient id="a" x1="1030.71" y1="86.02" x2="912.42" y2="987.24" gradientTransform="matrix(1, 0, 0, -1, 0, 1082)" gradientUnits="userSpaceOnUse"><stop offset="0" stop-color="#51abfe"/><stop offset="1" stop-color="#00f6fe"/></linearGradient><linearGradient id="b" x1="1000.08" y1="334.4" x2="1106.77" y2="334.4" xlink:href="#a"/><linearGradient id="c" x1="1010.31" y1="407.6" x2="1106.77" y2="407.6" xlink:href="#a"/></defs><title>l_logo</title><path class="a" d="M1011.41,387.1l1.86,0c11.36.22,20.11,2.48,27.49,5.86l.44.2c9.81,4.58,17.21,11.11,25.15,17.36a95.43,95.43,0,0,0,17.92,11.67s.1,0,.14.07a66.82,66.82,0,0,0,14,4.87c.34.09.69.17,1,.24a86.74,86.74,0,0,0,16.73,1.85V105.41c-24.34,0-84.23,4.93-145.19,26.45l-.36.13c-18.84-8-123.71-74.29-142-61.42-18.8,13.21-8.42,134.2,2.17,165.31-16.95,28.4-27.31,62.86-27.38,104.6-.19,126.19,105.78,411.87,45.1,549.64-4,9.06-7.83,18-12.42,26.73-24.41,46,6.36,103.33,58.4,106,1.29.06,2.62.09,3.94.09h.37c18.31-.09,35.42-9.15,46.65-23.61a321.8,321.8,0,0,0,58.15-271.94.25.25,0,0,1-.19-.06c-.32-1.58-.63-3.18-1-4.75,51,79.95,113.74,76.09,113.74,76.09v-151s-109.8,2.51-153.83-66.05c-5.38-17.49-10.44-34.32-14.66-50.17-6-22.55-10.38-43.12-11.7-60.61a1.39,1.39,0,0,1,0-.41c-.25-2.48-.37-5-.37-7.58A75.81,75.81,0,0,1,1011.41,387.1Z" transform="translate(-803.43 -68.89)"/><path class="b" d="M838.06,99.55s-.37,38.65,13,55.54c0,0-9.42-.65-19.49-23.06,0,0,.65,83.47,19.49,118.54,0,0-25.33,32.48-17.86,74.05,0,0-4.87-10.07-7.15-33.13,0,0-18.19,121.55,34.75,223.81,0,0-13.64-9.78-24.36-36.74,0,0,38.32,153,43.52,206.56,0,0-5.85-23.71-12-33.78,0,0,19.49,121.79,10.39,173.43S854.94,908.24,839,937.47c0,0,18.17-12.34,22.06-18.51,0,0-30.35,47-11,72.43,0,0,11.69-44.17,36.7-57.49,0,0-3.25,42.22-27.28,67.55,0,0,24.36-3.25,47.42-30.53,0,0,.21,23.68-7.79,37.67,0,0,60.41-22.08,96.78-147.12,0,0-10.07,16.89-25.33,26,0,0,25.73-37.1,18.51-160.12a173.83,173.83,0,0,1-12,45.47s1-94.19-24.68-170.18c0,0,18.51,31.83,43.52,36,0,0-44.49-28.58-61.06-99.06S918.55,422,918.55,422s3,36.08,10.07,39.62c0,0-9.74-36.7,13.32-94.19,0,0-8.44,28.58-2,37.35,0,0,6.82-39.95,53.26-40.6,0,0-18.19,11.37-19.16,19.81,0,0,54.24-30.2,101.33,15.59,0,0,32.48,26.31,34.75-20.46,0,0-6.82,21.44-21.11,12.34,0,0,23.71-26.63,17.21-88.34,0,0-2.27,30.53-11.69,36.38,0,0,19.32-107.66,12.5-164.5,0,0-8.44,48.72-16.24,65.44,0,0,14.94-71.13,6.66-115.95,0,0-52,35.4-88,32.8,0,0,18.19-10.56,28.58-23.38-8.49,8.75-57.17,22-81.52,17.86,0,0-32.15-24.68-66.58-40.92,0,0,15.91,17.54,20.14,29.55,0,0-44-46.18-65.61-53.26,0,0,9.42,16.24,9.42,27.28C853.93,114.49,842.32,110.59,838.06,99.55Z" transform="translate(-803.43 -68.89)"/><path class="c" d="M1106.77,766v21.19s-61.87-18-106.69-79.16c0,0,57,61.08,97.43,67C1097.51,775,1103.12,774.76,1106.77,766Z" transform="translate(-803.43 -68.89)"/><path class="d" d="M1106.77,713.05V660.27s-50.34,2.27-96.46-24.52c0,0,25.33,28.26,84.12,33.29C1094.43,669.05,1103.52,677.17,1106.77,713.05Z" transform="translate(-803.43 -68.89)"/><path class="a" d="M1011.41,387.07l1.86,0c11.36.22,20.11,2.48,27.49,5.86l.44.2c9.81,4.58,17.21,11.11,25.15,17.36a95.43,95.43,0,0,0,17.92,11.67l.14.07a66.82,66.82,0,0,0,14,4.87c.34.09.69.17,1,.24a86.74,86.74,0,0,0,16.73,1.85V105.38c-24.34,0-84.23,4.93-145.19,26.45l-.36.13c-18.84-8-123.71-74.29-142-61.42-18.8,13.21-8.42,134.2,2.17,165.31-16.95,28.4-27.31,62.86-27.38,104.6-.19,126.19,105.78,411.87,45.1,549.64-4,9.06-7.83,18-12.42,26.73-24.41,46,6.36,103.33,58.4,106,1.29.06,2.62.09,3.94.09h.37c18.31-.09,35.42-9.15,46.65-23.61a321.8,321.8,0,0,0,58.15-271.94.25.25,0,0,1-.19-.06c-.32-1.58-.63-3.18-1-4.75,51,80,113.74,76.09,113.74,76.09v-151s-109.8,2.51-153.83-66c-5.38-17.49-10.44-34.32-14.66-50.17-6-22.55-10.38-43.12-11.7-60.61a1.39,1.39,0,0,1,0-.41c-.25-2.48-.37-5-.37-7.58A75.81,75.81,0,0,1,1011.41,387.07Zm95.36,273.18V713c-3.25-35.89-12.34-44-12.34-44-58.78-5-84.12-33.29-84.12-33.29C1056.43,662.52,1106.77,660.25,1106.77,660.25ZM1097.51,775s5.6-.24,9.26-9v21.19s-61.87-18-106.69-79.16C1000.08,708,1057.08,769.07,1097.51,775ZM940,404.81c-6.5-8.77,2-37.35,2-37.35-23.06,57.49-13.32,94.19-13.32,94.19-7-3.55-10.07-39.62-10.07-39.62s-.32,47.09,16.24,117.57,61.06,99.06,61.06,99.06c-25-4.22-43.52-36-43.52-36C978,678.61,977,772.79,977,772.79a174.2,174.2,0,0,0,12-45.47c7.21,123-18.51,160.12-18.51,160.12,15.26-9.09,25.33-26,25.33-26-36.38,125-96.78,147.12-96.78,147.12,8-14,7.79-37.67,7.79-37.67-23.06,27.28-47.42,30.53-47.42,30.53,24-25.33,27.28-67.55,27.28-67.55-25,13.32-36.7,57.49-36.7,57.49-19.31-25.4,11-72.43,11-72.43-3.9,6.17-22.06,18.51-22.06,18.51,15.93-29.23,30.18-61.06,39.28-112.7S867.9,651.33,867.9,651.33c6.17,10.07,12,33.78,12,33.78-5.2-53.59-43.52-206.56-43.52-206.56,10.72,27,24.36,36.74,24.36,36.74C807.82,413,826,291.48,826,291.48c2.27,23.06,7.15,33.13,7.15,33.13C825.69,283,851,250.56,851,250.56,832.18,215.48,831.53,132,831.53,132,841.6,154.43,851,155.08,851,155.08c-13.32-16.89-12.95-55.54-12.95-55.54,4.26,11,15.87,14.94,15.87,14.94,0-11-9.42-27.28-9.42-27.28,21.57,7.08,65.61,53.26,65.61,53.26-4.22-12-20.14-29.55-20.14-29.55,34.42,16.21,66.57,40.9,66.57,40.9,24.35,4.13,73-9.12,81.52-17.86-10.39,12.83-28.58,23.38-28.58,23.38,36,2.6,88-32.8,88-32.8,8.28,44.82-6.66,116-6.66,116,7.79-16.73,16.24-65.44,16.24-65.44,6.82,56.84-12.5,164.5-12.5,164.5,9.42-5.85,11.69-36.38,11.69-36.38,6.5,61.71-17.21,88.34-17.21,88.34,14.29,9.09,21.11-12.34,21.11-12.34-2.27,46.77-34.75,20.46-34.75,20.46C1028.35,353.83,974.11,384,974.11,384c1-8.44,19.16-19.81,19.16-19.81C946.82,364.86,940,404.81,940,404.81Z" transform="translate(-803.43 -68.89)"/></svg>